<?xml version="1.0" encoding="utf-8"?>
<!-- Svg Vector Icons : http://www.onlinewebfonts.com/icon -->
<!DOCTYPE svg PUBLIC "-//W3C//DTD SVG 1.1//EN" "http://www.w3.org/Graphics/SVG/1.1/DTD/svg11.dtd">
<svg version="1.1" xmlns="http://www.w3.org/2000/svg" xmlns:xlink="http://www.w3.org/1999/xlink" x="0px" y="0px" viewBox="0 0 1000 1000" enable-background="new 0 0 1000 1000" xml:space="preserve">
<metadata> Svg Vector Icons : http://www.onlinewebfonts.com/icon </metadata>
<g><g transform="translate(0.000000,512.000000) scale(0.100000,-0.100000)"><path d="M3759.9,4790.1v-229.9h182h182v-295.1V3972l-224.2-53.6c-802.8-189.7-1528.9-594-2115.2-1178.3C686.7,1644,247.9,51.9,627.3-1456C887.8-2492.6,1554.6-3442.9,2436-4031.1c572.9-381.3,1151.5-607.3,1843.2-714.6c304.6-46,958-46,1262.6,1.9c1266.5,195.4,2349,887.1,3052.2,1946.6c285.5,431.1,532.6,1028.9,636.1,1538.5c205,1021.2,46,2092.3-440.7,2973.6L8684,1904.6l390.9,394.7c411.9,413.9,448.3,467.5,427.3,605.4c-5.7,34.5-24.9,92-42.1,128.4c-15.3,34.5-274,306.6-571,601.6c-448.3,446.4-553.7,542.2-616.9,559.5c-95.8,26.8-164.8,26.8-233.8,1.9c-28.7-11.5-229.9-197.3-446.4-411.9l-392.8-390.9l-162.9,92c-371.7,205-797,364-1210.9,452.2c-124.5,26.8-229.9,47.9-233.8,47.9c-3.8,0-7.7,130.3-7.7,287.4v287.4h178.2h178.2l7.7,130.3c3.8,70.9,3.8,174.4,0,229.9l-5.8,99.6H4850.1H3759.9V4790.1z M5227.5,3197.9c846.9-82.4,1617.1-442.6,2205.3-1030.8C8011.5,1586.6,8358.3,885.3,8465.5,71c36.4-279.8,26.8-774.1-19.2-1038.5c-178.2-996.3-720.4-1827.9-1550-2387.3C5842.6-4063.7,4488-4157.6,3348-3603.8C2336.3-3111.4,1633.2-2209,1391.7-1097.7c-67.1,306.5-86.2,904.3-38.3,1222.4c160.9,1092.1,804.7,2048.2,1751.2,2603.8C3731.2,3096.4,4511,3268.8,5227.5,3197.9z"/><path d="M4761.9,3027.4c-170.5-103.5-159-373.6,19.2-469.4c160.9-86.2,371.7,24.9,390.9,205C5198.8,2991,4957.4,3148.1,4761.9,3027.4z"/><path d="M2591.2,2128.8c-241.4-128.4-153.3-500.1,118.8-503.9c291.2-5.7,387,375.5,128.4,505.8C2754,2174.8,2673.5,2174.8,2591.2,2128.8z"/><path d="M6978.7,2130.7c-86.2-42.2-153.3-143.7-153.3-231.8c0-208.8,214.6-339.1,398.5-243.3c139.9,72.8,185.9,277.8,88.2,394.7C7214.4,2165.2,7101.4,2192,6978.7,2130.7z"/><path d="M6394.4,1306.8C5332.9,532.8,4708.3,74.9,4532-61.2c-185.8-143.7-195.4-153.3-214.6-247.1c-11.5-51.7-21.1-212.7-21.1-356.4v-260.5l283.6,11.5c155.2,7.7,312.3,23,350.6,32.6c61.3,17.2,109.2,70.9,394.7,456C5764,161.1,6791,1575.1,6783.3,1580.8C6779.5,1582.7,6605.1,1460.1,6394.4,1306.8z"/><path d="M1700.2-55.4c-178.2-80.4-214.6-293.1-76.6-431.1c88.1-88.1,191.6-105.4,302.7-51.7c205,99.6,206.9,383.2,3.8,480.9C1832.4-9.5,1797.9-9.5,1700.2-55.4z"/><path d="M7883.1-57.3c-63.2-28.8-90.1-55.6-118.8-118.8c-21.1-46-38.3-99.6-38.3-120.7c0-21.1,17.2-74.7,38.3-120.7c28.7-63.2,55.6-90.1,118.8-118.8c105.4-47.9,137.9-47.9,237.6,1.9c59.4,28.7,92,61.3,120.7,120.7c49.8,101.5,49.8,132.2,0,237.6c-30.7,63.2-61.3,93.9-120.7,120.7C8021.1-11.4,7984.6-11.4,7883.1-57.3z"/><path d="M2652.5-2222.4c-203.1-46-272.1-318-115-461.8c168.6-159,456-32.6,456,203.1C2993.5-2316.3,2819.2-2184.1,2652.5-2222.4z"/><path d="M7011.3-2232c-92-32.6-128.4-63.2-160.9-137.9c-55.6-134.1-9.6-275.9,113-350.6c80.5-49.8,174.3-47.9,264.4,1.9c90,51.7,134.1,126.5,134.1,231.8C7362-2299,7185.7-2170.7,7011.3-2232z"/><path d="M4760-3163.1c-80.5-51.7-118.8-128.4-118.8-231.9c0-157.1,111.1-264.4,270.2-264.4c239.5,0,354.5,285.5,183.9,456c-57.5,57.5-84.3,69-170.5,74.7C4844.4-3122.9,4809.8-3130.6,4760-3163.1z"/></g></g>
</svg>